<?xml version="1.0" encoding="UTF-8" standalone="no"?>
<!-- Created with Inkscape (http://www.inkscape.org/) by Toomai Glittershine for SmashWiki -->
<svg id="svg2" xmlns:rdf="http://www.w3.org/1999/02/22-rdf-syntax-ns#" xmlns="http://www.w3.org/2000/svg" version="1.1" xmlns:cc="http://creativecommons.org/ns#" xmlns:dc="http://purl.org/dc/elements/1.1/" xmlns:xlink="http://www.w3.org/1999/xlink"
		height="32" width="32"
		viewBox="0 0 256 256">
	<defs id="defs4">
		<linearGradient id="linearGradient4250">
			<stop id="stop4252" offset="0" style="stop-color:#9f9f9f;stop-opacity:1;" />
			<stop id="stop4258" offset="0.5" style="stop-color:#8f8f8f;stop-opacity:1;" />
			<stop id="stop4254" offset="1" style="stop-color:#7f7f7f;stop-opacity:1;" />
		</linearGradient>
		<linearGradient id="linearGradient4236">
			<stop id="stop4238" offset="0" style="stop-color:#000000;stop-opacity:1;" />
			<stop id="stop4240" offset="1" style="stop-color:#000000;stop-opacity:0;" />
		</linearGradient>
		<linearGradient id="linearGradient4226">
			<stop id="stop4228" offset="0" style="stop-color:#ffffff;stop-opacity:1;" />
			<stop id="stop4230" offset="1" style="stop-color:#ffffff;stop-opacity:0;" />
		</linearGradient>
		<linearGradient id="linearGradient4216">
			<stop id="stop4467" offset="0" style="stop-color:#ffffff;stop-opacity:0;" />
			<stop id="stop4469" offset="0.67802244" style="stop-color:#ffffff;stop-opacity:0;" />
			<stop id="stop4473" offset="0.83901122" style="stop-color:#ffffff;stop-opacity:1;" />
			<stop id="stop4475" offset="1" style="stop-color:#ffffff;stop-opacity:0;" />
		</linearGradient>
		<linearGradient id="linearGradient4208">
			<stop id="stop4441" offset="0" style="stop-color:#ffffff;stop-opacity:0;" />
			<stop id="stop4443" offset="0.79075485" style="stop-color:#ffffff;stop-opacity:0;" />
			<stop id="stop4447" offset="0.89537743" style="stop-color:#ffffff;stop-opacity:1;" />
			<stop id="stop4449" offset="1" style="stop-color:#ffffff;stop-opacity:0;" />
		</linearGradient>
		<linearGradient id="linearGradient4188">
			<stop id="stop4373" offset="0" style="stop-color:#ffffff;stop-opacity:0;" />
			<stop id="stop4375" offset="0.85507244" style="stop-color:#ffffff;stop-opacity:0;" />
			<stop id="stop4377" offset="0.92753622" style="stop-color:#ffffff;stop-opacity:1;" />
			<stop id="stop4381" offset="1" style="stop-color:#ffffff;stop-opacity:0;" />
		</linearGradient>
		<linearGradient id="linearGradient4215">
			<stop id="stop4217" offset="0" style="stop-color:#000000;stop-opacity:1;" />
			<stop id="stop4229" offset="0.67802244" style="stop-color:#000000;stop-opacity:1;" />
			<stop id="stop4231" offset="0.78534829" style="stop-color:#000000;stop-opacity:0;" />
			<stop id="stop4233" offset="0.89267415" style="stop-color:#000000;stop-opacity:0;" />
			<stop id="stop4219" offset="1" style="stop-color:#000000;stop-opacity:1;" />
		</linearGradient>
		<linearGradient id="linearGradient4207">
			<stop id="stop4209" offset="0" style="stop-color:#000000;stop-opacity:1;" />
			<stop id="stop4223" offset="0.79075485" style="stop-color:#000000;stop-opacity:1;" />
			<stop id="stop4225" offset="0.86050323" style="stop-color:#000000;stop-opacity:0;" />
			<stop id="stop4227" offset="0.93025162" style="stop-color:#000000;stop-opacity:0;" />
			<stop id="stop4211" offset="1" style="stop-color:#000000;stop-opacity:1;" />
		</linearGradient>
		<linearGradient id="linearGradient4187">
			<stop id="stop4189" offset="0" style="stop-color:#000000;stop-opacity:1;" />
			<stop id="stop4195" offset="0.85507244" style="stop-color:#000000;stop-opacity:1;" />
			<stop id="stop4197" offset="0.90338163" style="stop-color:#000000;stop-opacity:0;" />
			<stop id="stop4199" offset="0.95169081" style="stop-color:#000000;stop-opacity:0;" />
			<stop id="stop4191" offset="1" style="stop-color:#000000;stop-opacity:1;" />
		</linearGradient>
		<linearGradient id="linearGradient4285">
			<stop id="stop4287" offset="0" style="stop-color:#cfcfcf;stop-opacity:1;" />
			<stop id="stop4297" offset="0.85" style="stop-color:#cfcfcf;stop-opacity:1;" />
			<stop id="stop4293" offset="0.95" style="stop-color:#cfcfcf;stop-opacity:0;" />
			<stop id="stop4289" offset="1" style="stop-color:#cfcfcf;stop-opacity:0;" />
		</linearGradient>
		<linearGradient id="linearGradient4273">
			<stop id="stop4275" offset="0" style="stop-color:#bfbfbf;stop-opacity:1;" />
			<stop id="stop4281" offset="0.95" style="stop-color:#bfbfbf;stop-opacity:1;" />
			<stop id="stop4277" offset="1" style="stop-color:#5f5f5f;stop-opacity:1;" />
		</linearGradient>
		<clipPath id="clipPath4405" clipPathUnits="userSpaceOnUse">
			<path id="path4407" style="opacity:1;fill:#ffffff;fill-opacity:1;stroke:none;"
				d="m 128,59 a 69,69 0 0 0 -69,69 69,69 0 0 0 69,69 69,69 0 0 0 69,-69 69,69 0 0 0 -69,-69 z m 0,10 a 59,59 0 0 1 59,59 59,59 0 0 1 -59,59 59,59 0 0 1 -59,-59 59,59 0 0 1 59,-59 z"
			/>
		</clipPath>
		<clipPath id="clipPath4459" clipPathUnits="userSpaceOnUse">
			<path id="path4461" style="opacity:1;fill:#ffffff;fill-opacity:1;stroke:none;"
				d="m 128,79 a 49,49 0 0 0 -49,49 49,49 0 0 0 49,49 49,49 0 0 0 49,-49 49,49 0 0 0 -49,-49 z m 0,10 a 39,39 0 0 1 39,39 39,39 0 0 1 -39,39 39,39 0 0 1 -39,-39 39,39 0 0 1 39,-39 z"
			/>
		</clipPath>
		<clipPath id="clipPath4481" clipPathUnits="userSpaceOnUse">
			<path id="path4483" style="opacity:1;fill:#ffffff;fill-opacity:1;stroke:none;"
				d="m 128,99 a 29,29 0 0 0 -29,29 29,29 0 0 0 29,29 29,29 0 0 0 29,-29 29,29 0 0 0 -29,-29 z m 0,10 a 19,19 0 0 1 19,19 19,19 0 0 1 -19,19 19,19 0 0 1 -19,-19 19,19 0 0 1 19,-19 z"
			/>
		</clipPath>
		<radialGradient id="radialGradient4355" xlink:href="#linearGradient4273" cx="131.535533906" cy="120.464466094" fx="131.535533906" fy="120.464466094" r="80" gradientUnits="userSpaceOnUse" />
		<radialGradient id="radialGradient4357" xlink:href="#linearGradient4285" cx="131.535533906" cy="120.464466094" fx="131.535533906" fy="120.464466094" r="80" gradientUnits="userSpaceOnUse" />
		<radialGradient id="radialGradient4193" xlink:href="#linearGradient4187" cx="131.535533906" cy="124.464466094" fx="131.535533906" fy="124.464466094" r="69" gradientUnits="userSpaceOnUse" />
		<radialGradient id="radialGradient4213" xlink:href="#linearGradient4207" cx="131.535533906" cy="124.464466094" fx="131.535533906" fy="124.464466094" r="49" gradientUnits="userSpaceOnUse" />
		<radialGradient id="radialGradient4221" xlink:href="#linearGradient4215" cx="131.535533906" cy="124.464466094" fx="131.535533906" fy="124.464466094" r="29" gradientUnits="userSpaceOnUse" />
		<radialGradient id="radialGradient4383" xlink:href="#linearGradient4188" cx="131.535533906" cy="122.464466094" fx="131.535533906" fy="122.464466094" r="69" gradientUnits="userSpaceOnUse" />
		<radialGradient id="radialGradient4451" xlink:href="#linearGradient4208" cx="131.535533906" cy="122.464466094" fx="131.535533906" fy="122.464466094" r="49" gradientUnits="userSpaceOnUse" />
		<radialGradient id="radialGradient4477" xlink:href="#linearGradient4216" cx="131.535533906" cy="122.464466094" fx="131.535533906" fy="122.464466094" r="29" gradientUnits="userSpaceOnUse" />
		<clipPath id="clipPath3410" clipPathUnits="userSpaceOnUse">
			<circle id="circle3412" cx="128" cy="128" r="80" style="opacity:1;fill:#ffffff;fill-opacity:1;stroke:none;" />
		</clipPath>
		<radialGradient id="radialGradient4207" xlink:href="#linearGradient4201" cx="99.71572875" cy="140.2842712" fx="99.71572875" fy="140.2842712" r="48" gradientUnits="userSpaceOnUse" />
		<linearGradient id="linearGradient4201">
			<stop id="stop4203" offset="0" style="stop-color:#dfdfdf;stop-opacity:1;" />
			<stop id="stop4210" offset="0.6" style="stop-color:#bfbfbf;stop-opacity:1;" />
			<stop id="stop4205" offset="1" style="stop-color:#5f5f5f;stop-opacity:1;" />
		</linearGradient>
		<linearGradient id="linearGradient4232" xlink:href="#linearGradient4226" x1="148" y1="69" x2="151.2" y2="120.5" gradientUnits="userSpaceOnUse" />
		<linearGradient id="linearGradient4242" xlink:href="#linearGradient4236" x1="148" y1="172" x2="151.2" y2="120.5" gradientUnits="userSpaceOnUse" />
		<linearGradient id="linearGradient4256" xlink:href="#linearGradient4250" x1="128" y1="142.4558441" x2="128" y2="180.4558441" gradientUnits="userSpaceOnUse" />
		<clipPath id="clipPath4279" clipPathUnits="userSpaceOnUse">
			<path id="path4281" style="opacity:1;fill:#ffffff;fill-opacity:1;stroke:none;"
				d="m 72.273438,139.89844 a 32,32 0 0 0 -4.558594,16.38672 32,32 0 0 0 4.558594,16.39062 18.5,18.5 0 0 0 9.941406,-16.39062 18.5,18.5 0 0 0 -9.941406,-16.38672 z"
			/>
		</clipPath>
	</defs>
	<metadata id="metadata7">
		<rdf:RDF>
			<cc:Work rdf:about="">
				<dc:format>image/svg+xml</dc:format>
				<dc:type rdf:resource="http://purl.org/dc/dcmitype/StillImage"/>
				<dc:title/>
			</cc:Work>
		</rdf:RDF>
	</metadata>
	<g id="g3428">
		<circle id="path3399" cx="99.71572875" cy="156.2842712" r="32" style="opacity:1;fill:url(#radialGradient4207);fill-opacity:1;stroke:none;" />
		<path id="circle3419" style="opacity:1;fill:#bfbfbf;fill-opacity:1;stroke:none;"
			d="m 120.22183,162.64823 c -9.17289,5.09605 -19.4501,7.41996 -26.870062,0 -7.419962,-7.41996 -5.096048,-17.69717 0,-26.87006 L 128.70711,72.138564 c 10.46031,-18.828568 39.92387,-15.230451 55.15433,0 15.23045,15.230451 18.82857,44.694016 0,55.154326 z"
		/>
		<path id="path4234" style="opacity:0.5;fill:url(#linearGradient4242);fill-opacity:1;stroke:none;"
			d="m 120.22183,162.64823 c -9.17289,5.09605 -19.4501,7.41996 -26.870062,0 -7.419962,-7.41996 -5.096048,-17.69717 0,-26.87006 L 128.70711,72.138564 c 10.46031,-18.828568 39.92387,-15.230451 55.15433,0 15.23045,15.230451 18.82857,44.694016 0,55.154326 z"
		/>
		<path id="path4224" style="opacity:0.5;fill:url(#linearGradient4232);fill-opacity:1;stroke:none;"
			d="m 120.22183,162.64823 c -9.17289,5.09605 -19.4501,7.41996 -26.870062,0 -7.419962,-7.41996 -5.096048,-17.69717 0,-26.87006 L 128.70711,72.138564 c 10.46031,-18.828568 39.92387,-15.230451 55.15433,0 15.23045,15.230451 18.82857,44.694016 0,55.154326 z"
		/>
		<g id="g4260" clip-path="url(#clipPath4279)">
			<circle id="circle4246" cx="63.71572875" cy="156.2842712" r="32" style="opacity:1;fill:#5f5f5f;fill-opacity:1;stroke:none;" />
			<circle id="circle4248" cx="60.88730163" cy="161.4558441" r="19" style="opacity:1;fill:url(#linearGradient4256);fill-opacity:1;stroke:none;" />
		</g>
		<g id="g3414" transform="matrix(0.9,0.1,0.1,0.9,28.28427125,-28.28427125)">
			<circle id="circle4351" cx="128" cy="128" r="80" style="opacity:1;fill:url(#radialGradient4355);fill-opacity:1;stroke:none;" />
			<circle id="circle4353" clip-path="url(#clipPath3410)" cx="128" cy="124" r="80" style="opacity:1;fill:url(#radialGradient4357);fill-opacity:1;stroke:none;" />
			<path id="circle4178" style="opacity:0.25;fill:url(#radialGradient4193);fill-opacity:1;stroke:none;" transform="translate(3.535533906,-3.535533906)"
				d="m 128,59 a 69,69 0 0 0 -69,69 69,69 0 0 0 69,69 69,69 0 0 0 69,-69 69,69 0 0 0 -69,-69 z m 0,10 a 59,59 0 0 1 59,59 59,59 0 0 1 -59,59 59,59 0 0 1 -59,-59 59,59 0 0 1 59,-59 z"
			/>
			<path id="circle4180" style="opacity:0.25;fill:url(#radialGradient4213);fill-opacity:1;stroke:none;" transform="translate(3.535533906,-3.535533906)"
				d="m 128,79 a 49,49 0 0 0 -49,49 49,49 0 0 0 49,49 49,49 0 0 0 49,-49 49,49 0 0 0 -49,-49 z m 0,10 a 39,39 0 0 1 39,39 39,39 0 0 1 -39,39 39,39 0 0 1 -39,-39 39,39 0 0 1 39,-39 z"
			/>
			<path id="circle4182" style="opacity:0.25;fill:url(#radialGradient4221);fill-opacity:1;stroke:none;" transform="translate(3.535533906,-3.535533906)"
				d="m 128,99 a 29,29 0 0 0 -29,29 29,29 0 0 0 29,29 29,29 0 0 0 29,-29 29,29 0 0 0 -29,-29 z m 0,10 a 19,19 0 0 1 19,19 19,19 0 0 1 -19,19 19,19 0 0 1 -19,-19 19,19 0 0 1 19,-19 z"
			/>
			<circle id="circle4176" cx="131.535533906" cy="124.464466094" r="8" style="opacity:1;fill:#000000;fill-opacity:1;stroke:none;" />
			<path id="path4367" clip-path="url(#clipPath4405)" style="opacity:0.5;fill:url(#radialGradient4383);fill-opacity:1;stroke:none;" transform="translate(3.535533906,-3.535533906)"
				d="m 128,57 a 69,69 0 0 0 -69,69 69,69 0 0 0 69,69 69,69 0 0 0 69,-69 69,69 0 0 0 -69,-69 z m 0,10 a 59,59 0 0 1 59,59 59,59 0 0 1 -59,59 59,59 0 0 1 -59,-59 59,59 0 0 1 59,-59 z"
			/>
			<path id="path4437" clip-path="url(#clipPath4459)" style="opacity:0.5;fill:url(#radialGradient4451);fill-opacity:1;stroke:none;" transform="translate(3.535533906,-3.535533906)"
				d="m 128,77 a 49,49 0 0 0 -49,49 49,49 0 0 0 49,49 49,49 0 0 0 49,-49 49,49 0 0 0 -49,-49 z m 0,10 a 39,39 0 0 1 39,39 39,39 0 0 1 -39,39 39,39 0 0 1 -39,-39 39,39 0 0 1 39,-39 z"
			/>
			<path id="path4463" clip-path="url(#clipPath4481)" style="opacity:0.5;fill:url(#radialGradient4477);fill-opacity:1;stroke:none;" transform="translate(3.535533906,-3.535533906)"
				d="m 128,97 a 29,29 0 0 0 -29,29 29,29 0 0 0 29,29 29,29 0 0 0 29,-29 29,29 0 0 0 -29,-29 z m 0,10 a 19,19 0 0 1 19,19 19,19 0 0 1 -19,19 19,19 0 0 1 -19,-19 19,19 0 0 1 19,-19 z"
			/>
		</g>
	</g>
</svg>